<?xml version="1.0" encoding="utf-8"?>
<!-- Generator: Adobe Illustrator 23.0.1, SVG Export Plug-In . SVG Version: 6.00 Build 0)  -->
<svg version="1.1" id="Lager_1" xmlns="http://www.w3.org/2000/svg" xmlns:xlink="http://www.w3.org/1999/xlink" x="0px" y="0px"
	 viewBox="0 0 1000 700" style="enable-background:new 0 0 1000 700;" xml:space="preserve">
<style type="text/css">
	.st0{fill:#0E1B33;}
	.st1{font-family:'Gilroy-Bold';}
	.st2{font-size:100px;}
	.st3{fill:#FF8155;}
</style>
<text transform="matrix(1 0 0 1 457.6016 243.2847)" class="st0 st1 st2">Pohat</text>
<circle class="st3" cx="744.5" cy="237.5" r="7.5"/>
<g>
	<path class="st3" d="M297,270.6c0-0.1,0-0.1,0-0.1c0,0,0,0,0,0c0,0,0,0,0,0c0-28.3,0-56.7,0-85c8.1-28.3,32.1-49,60.4-52.2
		c33.1-3.7,64.1,17.5,74.1,46.7c10.5,30.6-6.2,57.3-8.2,60.4c-14.1,21.7-35.4,28.5-41.2,30.2c-11,0-22,0-33,0c0-11,0-22,0-33
		c4.6,1.1,12.6,2.3,22,0c5-1.2,20.3-4.9,27.5-19.2c8.3-16.7-1.5-33.7-2.7-35.7c-6.2-10.3-15.5-14.9-19.2-16.5c-3.4-1-11.9-3.1-22,0
		c-2.9,0.9-12.6,4-19.2,13.7c-3.7,5.3-5,10.6-5.5,13.7c0,25.6,0,51.3,0,76.9"/>
	<path class="st3" d="M349.2,218.4L349.2,218.4c0-7.3,0-14.6,0-22c2.9-6.6,9.4-11,16.5-11c6.8,0,13.8,3.9,16.5,11
		c2.6,7,0.1,15.2-5.5,19.2c-3.1,2.2-6.4,2.7-8.2,2.7"/>
</g>
</svg>
